<?xml version="1.0" encoding="utf-8"?>
<!-- Generator: Adobe Illustrator 24.1.0, SVG Export Plug-In . SVG Version: 6.00 Build 0)  -->
<svg version="1.1" id="Layer_1" xmlns="http://www.w3.org/2000/svg" xmlns:xlink="http://www.w3.org/1999/xlink" x="0px" y="0px"
	 viewBox="0 0 90 63" style="enable-background:new 0 0 90 63;" xml:space="preserve">
<style type="text/css">
	.st0{fill:none;stroke:#000000;stroke-width:2.5;stroke-linecap:round;stroke-linejoin:round;stroke-miterlimit:6.6667;}
	.st1{fill:#2DC5FA;}
	.st2{fill:#FFFFFF;}
</style>
<g>
	<g>
		<path class="st0" d="M6.3,12.8v37.5"/>
		<path class="st0" d="M11.2,12.8V24c0,2.8-2.2,5-5,5l0,0c-2.8,0-5-2.2-5-5V12.8"/>
	</g>
	<path class="st0" d="M81.2,37.8h5c1.3,0,2.4-1,2.5-2.3c0-0.1,0-0.1,0-0.2c-0.3-7.2-0.6-14.7-5.2-21.9c-0.4-0.6-1.2-0.7-1.7-0.4
		c-0.4,0.2-0.6,0.6-0.6,1v36.2"/>
</g>
<polygon class="st1" points="73.3,47.3 73.3,15.8 46,0 18.7,15.8 18.7,47.3 46,63 "/>
<g>
	<path class="st2" d="M32.8,20.1h4.9v1.3h-1.7v5.9h1.7v1.3h-4.9v-1.3h1.6v-5.9h-1.6V20.1z"/>
	<path class="st2" d="M42.6,25.4h-1.2v3.2h-1.6v-8.5h2.9c0.5,0,0.9,0.1,1.3,0.2s0.7,0.3,1,0.5s0.5,0.5,0.6,0.8s0.2,0.7,0.2,1.1
		c0,0.3,0,0.6-0.1,0.8s-0.2,0.5-0.3,0.7s-0.3,0.4-0.5,0.5s-0.4,0.3-0.6,0.4l1.8,3.5v0.1h-1.8L42.6,25.4z M41.3,24.1h1.2
		c0.5,0,0.8-0.1,1.1-0.4s0.4-0.6,0.4-1c0-0.4-0.1-0.8-0.4-1s-0.6-0.4-1.1-0.4h-1.2V24.1z"/>
	<path class="st2" d="M52.8,25c0,0.5-0.1,1.1-0.2,1.5s-0.4,0.9-0.6,1.2s-0.6,0.6-1,0.8s-0.8,0.3-1.3,0.3s-0.9-0.1-1.3-0.3
		s-0.7-0.4-1-0.8s-0.5-0.7-0.6-1.2s-0.2-1-0.2-1.5v-1.2c0-0.5,0.1-1.1,0.2-1.5s0.3-0.9,0.6-1.2s0.6-0.6,1-0.8s0.8-0.3,1.3-0.3
		c0.5,0,0.9,0.1,1.3,0.3s0.7,0.4,1,0.8s0.5,0.7,0.6,1.2s0.2,1,0.2,1.5V25z M51.2,23.7c0-0.3,0-0.7-0.1-1s-0.1-0.5-0.3-0.8
		s-0.3-0.4-0.5-0.5s-0.4-0.2-0.7-0.2c-0.3,0-0.5,0.1-0.7,0.2s-0.3,0.3-0.4,0.5s-0.2,0.5-0.2,0.8s-0.1,0.6-0.1,1V25
		c0,0.3,0,0.7,0.1,1s0.1,0.5,0.2,0.8s0.3,0.4,0.4,0.5s0.4,0.2,0.7,0.2c0.3,0,0.5-0.1,0.7-0.2s0.3-0.3,0.5-0.5s0.2-0.5,0.3-0.8
		s0.1-0.6,0.1-1V23.7z"/>
	<path class="st2" d="M59.7,28.6h-1.6l-2.4-5.5v5.5H54v-8.5h1.7l2.4,5.5l0-5.5h1.7V28.6z"/>
	<path class="st2" d="M37.9,39.5h-3.7V43h-1.7v-8.5h5.8v1.3h-4.1v2.3h3.7V39.5z"/>
	<path class="st2" d="M45.6,39.4c0,0.5-0.1,1.1-0.2,1.5s-0.4,0.9-0.6,1.2s-0.6,0.6-1,0.8s-0.8,0.3-1.3,0.3s-0.9-0.1-1.3-0.3
		s-0.7-0.4-1-0.8s-0.5-0.7-0.6-1.2s-0.2-1-0.2-1.5v-1.2c0-0.5,0.1-1.1,0.2-1.5s0.3-0.9,0.6-1.2s0.6-0.6,1-0.8s0.8-0.3,1.3-0.3
		c0.5,0,0.9,0.1,1.3,0.3s0.7,0.4,1,0.8s0.5,0.7,0.6,1.2s0.2,1,0.2,1.5V39.4z M44,38.1c0-0.3,0-0.7-0.1-1s-0.1-0.5-0.3-0.8
		s-0.3-0.4-0.5-0.5s-0.4-0.2-0.7-0.2c-0.3,0-0.5,0.1-0.7,0.2s-0.3,0.3-0.4,0.5s-0.2,0.5-0.2,0.8s-0.1,0.6-0.1,1v1.3
		c0,0.3,0,0.7,0.1,1s0.1,0.5,0.2,0.8s0.3,0.4,0.4,0.5s0.4,0.2,0.7,0.2c0.3,0,0.5-0.1,0.7-0.2s0.3-0.3,0.5-0.5s0.2-0.5,0.3-0.8
		s0.1-0.6,0.1-1V38.1z"/>
	<path class="st2" d="M52.8,39.4c0,0.5-0.1,1.1-0.2,1.5s-0.4,0.9-0.6,1.2s-0.6,0.6-1,0.8s-0.8,0.3-1.3,0.3s-0.9-0.1-1.3-0.3
		s-0.7-0.4-1-0.8s-0.5-0.7-0.6-1.2s-0.2-1-0.2-1.5v-1.2c0-0.5,0.1-1.1,0.2-1.5s0.3-0.9,0.6-1.2s0.6-0.6,1-0.8s0.8-0.3,1.3-0.3
		c0.5,0,0.9,0.1,1.3,0.3s0.7,0.4,1,0.8s0.5,0.7,0.6,1.2s0.2,1,0.2,1.5V39.4z M51.2,38.1c0-0.3,0-0.7-0.1-1s-0.1-0.5-0.3-0.8
		s-0.3-0.4-0.5-0.5s-0.4-0.2-0.7-0.2c-0.3,0-0.5,0.1-0.7,0.2s-0.3,0.3-0.4,0.5s-0.2,0.5-0.2,0.8s-0.1,0.6-0.1,1v1.3
		c0,0.3,0,0.7,0.1,1s0.1,0.5,0.2,0.8s0.3,0.4,0.4,0.5s0.4,0.2,0.7,0.2c0.3,0,0.5-0.1,0.7-0.2s0.3-0.3,0.5-0.5s0.2-0.5,0.3-0.8
		s0.1-0.6,0.1-1V38.1z"/>
	<path class="st2" d="M54,43v-8.5h2.2c0.6,0,1.1,0.1,1.5,0.3s0.9,0.5,1.2,0.8s0.6,0.8,0.8,1.2s0.3,1,0.3,1.6v0.7
		c0,0.6-0.1,1.1-0.3,1.6s-0.4,0.9-0.7,1.2s-0.7,0.6-1.2,0.8S56.9,43,56.3,43H54z M55.7,35.8v5.9h0.6c0.3,0,0.6-0.1,0.8-0.2
		s0.5-0.3,0.6-0.5s0.3-0.5,0.4-0.8s0.1-0.7,0.1-1.1v-0.7c0-0.4,0-0.7-0.1-1s-0.2-0.6-0.4-0.8s-0.4-0.4-0.6-0.5s-0.6-0.2-0.9-0.2
		H55.7z"/>
</g>
</svg>
