<?xml version="1.0" encoding="utf-8"?>
<!-- Generator: Adobe Illustrator 24.1.0, SVG Export Plug-In . SVG Version: 6.00 Build 0)  -->
<svg version="1.1" id="Layer_1" xmlns="http://www.w3.org/2000/svg" xmlns:xlink="http://www.w3.org/1999/xlink" x="0px" y="0px"
	 viewBox="0 0 90 63" style="enable-background:new 0 0 90 63;" xml:space="preserve">
<style type="text/css">
	.st0{fill:none;stroke:#000000;stroke-width:2.5;stroke-linecap:round;stroke-linejoin:round;stroke-miterlimit:6.6667;}
	.st1{fill:#2DC5FA;}
</style>
<g>
	<g>
		<path class="st0" d="M6.3,12.8v37.5"/>
		<path class="st0" d="M11.2,12.8V24c0,2.8-2.2,5-5,5l0,0c-2.8,0-5-2.2-5-5V12.8"/>
	</g>
	<path class="st0" d="M81.2,37.8h5c1.3,0,2.4-1,2.5-2.3c0-0.1,0-0.1,0-0.2c-0.3-7.2-0.6-14.7-5.2-21.9c-0.4-0.6-1.2-0.7-1.7-0.4
		c-0.4,0.2-0.6,0.6-0.6,1v36.2"/>
</g>
<polygon class="st1" points="73.3,47.3 73.3,15.8 46,0 18.7,15.8 18.7,47.3 46,63 "/>
</svg>
