<?xml version="1.0" encoding="utf-8"?>
<!-- Generator: Adobe Illustrator 24.1.0, SVG Export Plug-In . SVG Version: 6.00 Build 0)  -->
<svg version="1.1" id="Layer_1" xmlns="http://www.w3.org/2000/svg" xmlns:xlink="http://www.w3.org/1999/xlink" x="0px" y="0px"
	 viewBox="0 0 294.4 63" style="enable-background:new 0 0 294.4 63;" xml:space="preserve">
<style type="text/css">
	.st0{fill:none;stroke:#000000;stroke-width:2.5;stroke-linecap:round;stroke-linejoin:round;stroke-miterlimit:6.6667;}
	.st1{fill:#2DC5FA;}
</style>
<g>
	<g>
		<path class="st0" d="M6.3,12.8v37.5"/>
		<path class="st0" d="M11.2,12.8V24c0,2.8-2.2,5-5,5l0,0c-2.8,0-5-2.2-5-5V12.8"/>
	</g>
	<path class="st0" d="M81.2,37.8h5c1.3,0,2.4-1,2.5-2.3c0-0.1,0-0.1,0-0.2c-0.3-7.2-0.6-14.7-5.2-21.9c-0.4-0.6-1.2-0.7-1.7-0.4
		c-0.4,0.2-0.6,0.6-0.6,1v36.2"/>
</g>
<polygon class="st1" points="73.3,47.3 73.3,15.8 46,0 18.7,15.8 18.7,47.3 46,63 "/>
<g>
	<path d="M114.6,18.5h14.8v4h-5v17.6h5v4h-14.8v-4h4.9V22.5h-4.9V18.5z"/>
	<path d="M147.9,24.8c0.7,0,1.4,0,2,0.1s1.1,0.2,1.5,0.3l-0.7,4.9c-0.6-0.2-1.3-0.3-2-0.3s-1.3-0.1-1.9-0.1c-1.4,0-2.5,0.3-3.3,0.8
		s-1.4,1.3-1.9,2.3v11.4h-4.9v-19h4.6l0.2,3.1c0.8-1.1,1.7-1.9,2.8-2.5S146.6,24.8,147.9,24.8z"/>
	<path d="M154.1,34.4c0-1.4,0.2-2.7,0.6-3.8s1-2.2,1.7-3.1s1.7-1.5,2.8-2s2.4-0.7,3.8-0.7s2.7,0.2,3.8,0.7s2.1,1.2,2.8,2
		s1.4,1.9,1.7,3.1s0.6,2.5,0.6,3.8v0.4c0,1.4-0.2,2.7-0.6,3.9s-1,2.2-1.7,3.1s-1.7,1.5-2.8,2s-2.4,0.7-3.8,0.7
		c-1.4,0-2.7-0.2-3.8-0.7s-2.1-1.2-2.8-2s-1.4-1.9-1.7-3.1s-0.6-2.5-0.6-3.9V34.4z M159,34.8c0,0.8,0.1,1.5,0.2,2.2s0.4,1.3,0.7,1.8
		s0.8,0.9,1.3,1.2s1.2,0.5,1.9,0.5c0.7,0,1.3-0.2,1.8-0.5s0.9-0.7,1.3-1.2s0.6-1.1,0.7-1.8s0.2-1.4,0.2-2.2v-0.4
		c0-0.8-0.1-1.5-0.2-2.2s-0.4-1.3-0.7-1.8s-0.7-0.9-1.3-1.2s-1.1-0.5-1.9-0.5c-0.7,0-1.3,0.2-1.9,0.5s-0.9,0.7-1.3,1.2
		s-0.6,1.1-0.7,1.8s-0.2,1.4-0.2,2.2V34.8z"/>
	<path d="M179.7,25.1l0.3,2.6c0.7-0.9,1.5-1.7,2.5-2.2s2.1-0.8,3.2-0.8c1,0,1.8,0.1,2.6,0.4s1.5,0.7,2.1,1.3s1,1.4,1.4,2.4
		s0.5,2.1,0.5,3.5v11.7h-4.9V32.5c0-0.8-0.1-1.4-0.3-1.9s-0.4-0.9-0.7-1.2s-0.7-0.5-1.1-0.6s-0.9-0.2-1.5-0.2
		c-0.8,0-1.5,0.2-2.1,0.5s-1.1,0.8-1.4,1.4v13.5h-4.9v-19H179.7z"/>
	<path d="M232.4,33.5h-11v10.6h-5V18.5h17.3v4h-12.3v7h11V33.5z"/>
	<path d="M236.2,34.4c0-1.4,0.2-2.7,0.6-3.8s1-2.2,1.7-3.1s1.7-1.5,2.8-2s2.4-0.7,3.8-0.7s2.7,0.2,3.8,0.7s2.1,1.2,2.8,2
		s1.4,1.9,1.7,3.1s0.6,2.5,0.6,3.8v0.4c0,1.4-0.2,2.7-0.6,3.9s-1,2.2-1.7,3.1s-1.7,1.5-2.8,2s-2.4,0.7-3.8,0.7
		c-1.4,0-2.7-0.2-3.8-0.7s-2.1-1.2-2.8-2s-1.4-1.9-1.7-3.1s-0.6-2.5-0.6-3.9V34.4z M241.1,34.8c0,0.8,0.1,1.5,0.2,2.2
		s0.4,1.3,0.7,1.8s0.8,0.9,1.3,1.2s1.2,0.5,1.9,0.5c0.7,0,1.3-0.2,1.8-0.5s0.9-0.7,1.3-1.2s0.6-1.1,0.7-1.8s0.2-1.4,0.2-2.2v-0.4
		c0-0.8-0.1-1.5-0.2-2.2s-0.4-1.3-0.7-1.8s-0.7-0.9-1.3-1.2s-1.1-0.5-1.9-0.5c-0.7,0-1.3,0.2-1.9,0.5s-0.9,0.7-1.3,1.2
		s-0.6,1.1-0.7,1.8s-0.2,1.4-0.2,2.2V34.8z"/>
	<path d="M256.7,34.4c0-1.4,0.2-2.7,0.6-3.8s1-2.2,1.7-3.1s1.7-1.5,2.8-2s2.4-0.7,3.8-0.7s2.7,0.2,3.8,0.7s2.1,1.2,2.8,2
		s1.4,1.9,1.7,3.1s0.6,2.5,0.6,3.8v0.4c0,1.4-0.2,2.7-0.6,3.9s-1,2.2-1.7,3.1s-1.7,1.5-2.8,2s-2.4,0.7-3.8,0.7
		c-1.4,0-2.7-0.2-3.8-0.7s-2.1-1.2-2.8-2s-1.4-1.9-1.7-3.1s-0.6-2.5-0.6-3.9V34.4z M261.6,34.8c0,0.8,0.1,1.5,0.2,2.2
		s0.4,1.3,0.7,1.8s0.8,0.9,1.3,1.2s1.2,0.5,1.9,0.5c0.7,0,1.3-0.2,1.8-0.5s0.9-0.7,1.3-1.2s0.6-1.1,0.7-1.8s0.2-1.4,0.2-2.2v-0.4
		c0-0.8-0.1-1.5-0.2-2.2s-0.4-1.3-0.7-1.8s-0.7-0.9-1.3-1.2s-1.1-0.5-1.9-0.5c-0.7,0-1.3,0.2-1.9,0.5s-0.9,0.7-1.3,1.2
		s-0.6,1.1-0.7,1.8s-0.2,1.4-0.2,2.2V34.8z"/>
	<path d="M277.4,34.5c0-1.4,0.2-2.8,0.5-4s0.8-2.2,1.5-3.1s1.4-1.5,2.3-2s2-0.7,3.2-0.7c1,0,1.9,0.2,2.6,0.5s1.4,0.9,2,1.5v-9.7h4.9
		v27H290l-0.2-2c-0.6,0.7-1.3,1.3-2.1,1.7s-1.7,0.6-2.8,0.6c-1.2,0-2.2-0.2-3.1-0.7s-1.7-1.2-2.3-2s-1.1-1.9-1.5-3s-0.5-2.5-0.5-3.8
		V34.5z M282.3,34.8c0,0.8,0.1,1.5,0.2,2.2s0.4,1.3,0.7,1.8s0.7,0.9,1.2,1.2s1.1,0.4,1.8,0.4c0.8,0,1.5-0.2,2.1-0.5s1-0.9,1.3-1.5
		v-7.7c-0.3-0.6-0.8-1.1-1.3-1.5s-1.2-0.5-2.1-0.5c-0.7,0-1.3,0.1-1.8,0.4s-0.9,0.7-1.2,1.2s-0.5,1.1-0.7,1.8s-0.2,1.4-0.2,2.2V34.8
		z"/>
</g>
</svg>
