<?xml version="1.0" encoding="utf-8"?>
<!-- Generator: Adobe Illustrator 24.1.0, SVG Export Plug-In . SVG Version: 6.00 Build 0)  -->
<svg version="1.1" id="Layer_1" xmlns="http://www.w3.org/2000/svg" xmlns:xlink="http://www.w3.org/1999/xlink" x="0px" y="0px"
	 viewBox="0 0 90 63" style="enable-background:new 0 0 90 63;" xml:space="preserve">
<style type="text/css">
	.st0{fill:none;stroke:#000000;stroke-width:2.5;stroke-linecap:round;stroke-linejoin:round;stroke-miterlimit:6.6667;}
	.st1{fill:#2DC5FA;}
	.st2{fill:#FFFFFF;}
</style>
<g>
	<g>
		<path class="st0" d="M6.3,12.8v37.5"/>
		<path class="st0" d="M11.2,12.8V24c0,2.8-2.2,5-5,5l0,0c-2.8,0-5-2.2-5-5V12.8"/>
	</g>
	<path class="st0" d="M81.2,37.8h5c1.3,0,2.4-1,2.5-2.3c0-0.1,0-0.1,0-0.2c-0.3-7.2-0.6-14.7-5.2-21.9c-0.4-0.6-1.2-0.7-1.7-0.4
		c-0.4,0.2-0.6,0.6-0.6,1v36.2"/>
</g>
<polygon class="st1" points="73.3,47.3 73.3,15.8 46,0 18.7,15.8 18.7,47.3 46,63 "/>
<g>
	<path class="st2" d="M32.7,19.6h5V21H36v5.9h1.7v1.3h-5v-1.3h1.6V21h-1.6V19.6z"/>
	<path class="st2" d="M44.2,21.7c0.2,0,0.5,0,0.7,0.1c0.2,0,0.4,0.1,0.5,0.1l-0.2,1.6c-0.2-0.1-0.4-0.1-0.7-0.1c-0.2,0-0.4,0-0.6,0
		c-0.5,0-0.8,0.1-1.1,0.3s-0.5,0.4-0.6,0.8v3.9h-1.6v-6.4H42l0.1,1c0.3-0.4,0.6-0.6,0.9-0.9C43.4,21.8,43.8,21.7,44.2,21.7z"/>
	<path class="st2" d="M46.7,25c0-0.5,0.1-0.9,0.2-1.3c0.1-0.4,0.3-0.7,0.6-1s0.6-0.5,0.9-0.7c0.4-0.2,0.8-0.2,1.3-0.2
		c0.5,0,0.9,0.1,1.3,0.2s0.7,0.4,1,0.7s0.5,0.6,0.6,1s0.2,0.8,0.2,1.3v0.1c0,0.5-0.1,0.9-0.2,1.3s-0.3,0.7-0.6,1
		c-0.3,0.3-0.6,0.5-0.9,0.7c-0.4,0.2-0.8,0.2-1.3,0.2c-0.5,0-0.9-0.1-1.3-0.2c-0.4-0.2-0.7-0.4-1-0.7c-0.3-0.3-0.5-0.6-0.6-1
		c-0.1-0.4-0.2-0.8-0.2-1.3V25z M48.3,25.1c0,0.3,0,0.5,0.1,0.8c0.1,0.2,0.1,0.4,0.2,0.6s0.3,0.3,0.4,0.4c0.2,0.1,0.4,0.2,0.6,0.2
		c0.2,0,0.4-0.1,0.6-0.2c0.2-0.1,0.3-0.2,0.4-0.4c0.1-0.2,0.2-0.4,0.2-0.6c0.1-0.2,0.1-0.5,0.1-0.8V25c0-0.3,0-0.5-0.1-0.7
		c-0.1-0.2-0.1-0.4-0.2-0.6c-0.1-0.2-0.2-0.3-0.4-0.4c-0.2-0.1-0.4-0.2-0.6-0.2c-0.2,0-0.5,0.1-0.6,0.2s-0.3,0.2-0.4,0.4
		c-0.1,0.2-0.2,0.4-0.2,0.6s-0.1,0.5-0.1,0.7V25.1z"/>
	<path class="st2" d="M55.7,21.9l0.1,0.9c0.2-0.3,0.5-0.6,0.8-0.7c0.3-0.2,0.7-0.3,1.1-0.3c0.3,0,0.6,0,0.9,0.1
		c0.3,0.1,0.5,0.2,0.7,0.5s0.3,0.5,0.5,0.8c0.1,0.3,0.2,0.7,0.2,1.2v3.9h-1.6v-3.9c0-0.3,0-0.5-0.1-0.6c-0.1-0.2-0.1-0.3-0.2-0.4
		c-0.1-0.1-0.2-0.2-0.4-0.2c-0.2,0-0.3-0.1-0.5-0.1c-0.3,0-0.5,0.1-0.7,0.2c-0.2,0.1-0.4,0.3-0.5,0.5v4.6h-1.7v-6.4H55.7z"/>
	<path class="st2" d="M37.8,39.3h-3.7v3.6h-1.7v-8.6h5.8v1.4h-4.2v2.3h3.7V39.3z"/>
	<path class="st2" d="M39.4,39.6c0-0.5,0.1-0.9,0.2-1.3c0.1-0.4,0.3-0.7,0.6-1s0.6-0.5,0.9-0.7c0.4-0.2,0.8-0.2,1.3-0.2
		c0.5,0,0.9,0.1,1.3,0.2s0.7,0.4,1,0.7s0.5,0.6,0.6,1s0.2,0.8,0.2,1.3v0.1c0,0.5-0.1,0.9-0.2,1.3c-0.1,0.4-0.3,0.7-0.6,1
		c-0.3,0.3-0.6,0.5-0.9,0.7c-0.4,0.2-0.8,0.2-1.3,0.2c-0.5,0-0.9-0.1-1.3-0.2c-0.4-0.2-0.7-0.4-1-0.7c-0.3-0.3-0.5-0.6-0.6-1
		c-0.1-0.4-0.2-0.8-0.2-1.3V39.6z M41.1,39.7c0,0.3,0,0.5,0.1,0.8c0.1,0.2,0.1,0.4,0.2,0.6c0.1,0.2,0.3,0.3,0.4,0.4
		c0.2,0.1,0.4,0.2,0.6,0.2c0.2,0,0.4-0.1,0.6-0.2c0.2-0.1,0.3-0.2,0.4-0.4c0.1-0.2,0.2-0.4,0.2-0.6c0.1-0.2,0.1-0.5,0.1-0.8v-0.1
		c0-0.3,0-0.5-0.1-0.7c-0.1-0.2-0.1-0.4-0.2-0.6c-0.1-0.2-0.2-0.3-0.4-0.4c-0.2-0.1-0.4-0.2-0.6-0.2c-0.2,0-0.5,0.1-0.6,0.2
		c-0.2,0.1-0.3,0.2-0.4,0.4s-0.2,0.4-0.2,0.6c-0.1,0.2-0.1,0.5-0.1,0.7V39.7z"/>
	<path class="st2" d="M46.7,39.6c0-0.5,0.1-0.9,0.2-1.3c0.1-0.4,0.3-0.7,0.6-1s0.6-0.5,0.9-0.7c0.4-0.2,0.8-0.2,1.3-0.2
		c0.5,0,0.9,0.1,1.3,0.2s0.7,0.4,1,0.7s0.5,0.6,0.6,1s0.2,0.8,0.2,1.3v0.1c0,0.5-0.1,0.9-0.2,1.3c-0.1,0.4-0.3,0.7-0.6,1
		c-0.3,0.3-0.6,0.5-0.9,0.7c-0.4,0.2-0.8,0.2-1.3,0.2c-0.5,0-0.9-0.1-1.3-0.2c-0.4-0.2-0.7-0.4-1-0.7c-0.3-0.3-0.5-0.6-0.6-1
		c-0.1-0.4-0.2-0.8-0.2-1.3V39.6z M48.3,39.7c0,0.3,0,0.5,0.1,0.8c0.1,0.2,0.1,0.4,0.2,0.6c0.1,0.2,0.3,0.3,0.4,0.4
		c0.2,0.1,0.4,0.2,0.6,0.2c0.2,0,0.4-0.1,0.6-0.2c0.2-0.1,0.3-0.2,0.4-0.4c0.1-0.2,0.2-0.4,0.2-0.6c0.1-0.2,0.1-0.5,0.1-0.8v-0.1
		c0-0.3,0-0.5-0.1-0.7c-0.1-0.2-0.1-0.4-0.2-0.6c-0.1-0.2-0.2-0.3-0.4-0.4c-0.2-0.1-0.4-0.2-0.6-0.2c-0.2,0-0.5,0.1-0.6,0.2
		c-0.2,0.1-0.3,0.2-0.4,0.4s-0.2,0.4-0.2,0.6c-0.1,0.2-0.1,0.5-0.1,0.7V39.7z"/>
	<path class="st2" d="M54,39.6c0-0.5,0.1-0.9,0.2-1.3c0.1-0.4,0.3-0.7,0.5-1c0.2-0.3,0.5-0.5,0.8-0.7c0.3-0.2,0.7-0.2,1.1-0.2
		c0.3,0,0.6,0.1,0.9,0.2c0.3,0.1,0.5,0.3,0.7,0.5v-3.3h1.7v9.1h-1.5l-0.1-0.7c-0.2,0.2-0.4,0.4-0.7,0.6S56.9,43,56.5,43
		c-0.4,0-0.7-0.1-1.1-0.2c-0.3-0.2-0.6-0.4-0.8-0.7c-0.2-0.3-0.4-0.6-0.5-1c-0.1-0.4-0.2-0.8-0.2-1.3V39.6z M55.7,39.7
		c0,0.3,0,0.5,0.1,0.7c0,0.2,0.1,0.4,0.2,0.6s0.2,0.3,0.4,0.4s0.4,0.1,0.6,0.1c0.3,0,0.5-0.1,0.7-0.2c0.2-0.1,0.3-0.3,0.4-0.5v-2.6
		c-0.1-0.2-0.3-0.4-0.4-0.5c-0.2-0.1-0.4-0.2-0.7-0.2c-0.2,0-0.4,0-0.6,0.2c-0.2,0.1-0.3,0.2-0.4,0.4s-0.2,0.4-0.2,0.6
		c0,0.2-0.1,0.5-0.1,0.8V39.7z"/>
</g>
</svg>
