<svg id="Layer_1" data-name="Layer 1" xmlns="http://www.w3.org/2000/svg" viewBox="0 0 300 300"><defs><style>.cls-1{fill:#f0f8ff;}.cls-2{fill:none;stroke:#000;stroke-linecap:round;stroke-linejoin:round;stroke-width:8.75px;}</style></defs><rect class="cls-1" width="300" height="300"/><path class="cls-2" d="M84.13,131.28c.68,40.25,60.57,40.25,61.25,0C144.69,91,84.81,91,84.13,131.28Z"/><path class="cls-2" d="M88.45,115.82c14.24,15,37.58,19.67,56.51,11.37"/><path class="cls-2" d="M57.88,231.9a56.9,56.9,0,0,1,39.37-54.13l17.5,14.76,17.5-14.76a56.89,56.89,0,0,1,39.38,54.13"/><path class="cls-2" d="M147.73,185.56a56.86,56.86,0,0,0-15.48-7.79l-17.5,14.76L141,210Z"/><path class="cls-2" d="M114.75,192.53l-17.5-14.76a56.8,56.8,0,0,0-15.47,7.79L88.5,210Z"/><path class="cls-2" d="M114.75,231.9V192.53"/><path class="cls-2" d="M132.25,227.53h17.5"/><path class="cls-2" d="M215.63,68.22c-29.36-1-46.22,36.59-26.25,57.94L185,151.35l22.82-14.07C258.46,147.44,267.22,69.61,215.63,68.22Z"/><path class="cls-2" d="M206.88,94.47h17.5"/><path class="cls-2" d="M206.88,112h17.5"/></svg>